# xmcd
#
# Track frame offsets:
#	150
#	53625
#	79125
#	112925
#	156075
#	202387
#	251400
#
# Disc length: 4701 seconds
#
# Revision: 1
# Processed by: cddbd v1.5.1PL0 Copyright (c) Steve Scherf et al.
# Submitted via: CDex 1.50Beta5
#
DISCID=56125b07
DTITLE=コチシュ - ラフマニノフ
DYEAR=1900
DGENRE=Classical
TTITLE0=ピアノ協奏曲第1番/1.Vivace
TTITLE1=ピアノ協奏曲第1番/2.Andante
TTITLE2=ピアノ協奏曲第1番/3.Allegro vivace
TTITLE3=ピアノ協奏曲第2番/1.Moderato
TTITLE4=ピアノ協奏曲第2番/2.Adagio sostenuto
TTITLE5=ピアノ協奏曲第2番/3.Allegro scherzando
TTITLE6=パガニーニの主題による狂詩曲 作品43
EXTD=
EXTT0=
EXTT1=
EXTT2=
EXTT3=
EXTT4=
EXTT5=
EXTT6=
PLAYORDER=
